<?xml version="1.0" encoding="UTF-8" standalone="no"?>
<!DOCTYPE svg PUBLIC "-//W3C//DTD SVG 1.1//EN"
 "http://www.w3.org/Graphics/SVG/1.1/DTD/svg11.dtd">
<!-- Generated by graphviz version 2.38.0 (20140413.2041)
 -->
<!-- Title: %3 Pages: 1 -->
<svg width="1242pt" height="188pt"
 viewBox="0.00 0.00 1241.59 188.00" xmlns="http://www.w3.org/2000/svg" xmlns:xlink="http://www.w3.org/1999/xlink">
<g id="graph0" class="graph" transform="scale(1 1) rotate(0) translate(4 184)">
<title>%3</title>
<polygon fill="white" stroke="none" points="-4,4 -4,-184 1237.59,-184 1237.59,4 -4,4"/>
<!-- Basic Pancakes -->
<g id="node1" class="node"><title>Basic Pancakes</title>
<ellipse fill="none" stroke="black" cx="691.796" cy="-90" rx="65.7887" ry="18"/>
<text text-anchor="middle" x="691.796" y="-86.3" font-family="Times,serif" font-size="14.00">Basic Pancakes</text>
</g>
<!-- Pancakes -->
<g id="node8" class="node"><title>Pancakes</title>
<ellipse fill="none" stroke="black" cx="691.796" cy="-18" rx="43.5923" ry="18"/>
<text text-anchor="middle" x="691.796" y="-14.3" font-family="Times,serif" font-size="14.00">Pancakes</text>
</g>
<!-- Basic Pancakes&#45;&gt;Pancakes -->
<g id="edge7" class="edge"><title>Basic Pancakes&#45;&gt;Pancakes</title>
<path fill="none" stroke="black" d="M691.796,-71.6966C691.796,-63.9827 691.796,-54.7125 691.796,-46.1124"/>
<polygon fill="black" stroke="black" points="695.296,-46.1043 691.796,-36.1043 688.296,-46.1044 695.296,-46.1043"/>
</g>
<!-- Table Salt -->
<g id="node2" class="node"><title>Table Salt</title>
<ellipse fill="none" stroke="black" cx="46.7958" cy="-162" rx="46.5926" ry="18"/>
<text text-anchor="middle" x="46.7958" y="-158.3" font-family="Times,serif" font-size="14.00">Table Salt</text>
</g>
<!-- Table Salt&#45;&gt;Basic Pancakes -->
<g id="edge1" class="edge"><title>Table Salt&#45;&gt;Basic Pancakes</title>
<path fill="none" stroke="black" d="M80.5711,-149.531C87.8335,-147.408 95.5154,-145.417 102.796,-144 285.058,-108.525 503.761,-96.7215 616.451,-92.849"/>
<polygon fill="black" stroke="black" points="616.813,-96.339 626.691,-92.509 616.58,-89.3429 616.813,-96.339"/>
</g>
<!-- All&#45;Purpose Flour -->
<g id="node3" class="node"><title>All&#45;Purpose Flour</title>
<ellipse fill="none" stroke="black" cx="186.796" cy="-162" rx="74.9875" ry="18"/>
<text text-anchor="middle" x="186.796" y="-158.3" font-family="Times,serif" font-size="14.00">All&#45;Purpose Flour</text>
</g>
<!-- All&#45;Purpose Flour&#45;&gt;Basic Pancakes -->
<g id="edge2" class="edge"><title>All&#45;Purpose Flour&#45;&gt;Basic Pancakes</title>
<path fill="none" stroke="black" d="M240.261,-149.418C250.061,-147.475 260.217,-145.58 269.796,-144 392.712,-123.725 536.902,-107.154 620.94,-98.2116"/>
<polygon fill="black" stroke="black" points="621.559,-101.666 631.135,-97.1327 620.823,-94.7045 621.559,-101.666"/>
</g>
<!-- Chicken Egg -->
<g id="node4" class="node"><title>Chicken Egg</title>
<ellipse fill="none" stroke="black" cx="335.796" cy="-162" rx="56.59" ry="18"/>
<text text-anchor="middle" x="335.796" y="-158.3" font-family="Times,serif" font-size="14.00">Chicken Egg</text>
</g>
<!-- Chicken Egg&#45;&gt;Basic Pancakes -->
<g id="edge3" class="edge"><title>Chicken Egg&#45;&gt;Basic Pancakes</title>
<path fill="none" stroke="black" d="M377.585,-149.757C385.597,-147.737 393.938,-145.728 401.796,-144 478.701,-127.091 567.909,-111.363 626.857,-101.505"/>
<polygon fill="black" stroke="black" points="627.487,-104.948 636.776,-99.8534 626.337,-98.0432 627.487,-104.948"/>
</g>
<!-- Granular White Sugar -->
<g id="node5" class="node"><title>Granular White Sugar</title>
<ellipse fill="none" stroke="black" cx="499.796" cy="-162" rx="89.0842" ry="18"/>
<text text-anchor="middle" x="499.796" y="-158.3" font-family="Times,serif" font-size="14.00">Granular White Sugar</text>
</g>
<!-- Granular White Sugar&#45;&gt;Basic Pancakes -->
<g id="edge4" class="edge"><title>Granular White Sugar&#45;&gt;Basic Pancakes</title>
<path fill="none" stroke="black" d="M540.985,-145.983C571.341,-134.916 612.694,-119.839 644.42,-108.272"/>
<polygon fill="black" stroke="black" points="645.738,-111.517 653.934,-104.804 643.341,-104.941 645.738,-111.517"/>
</g>
<!-- Milk -->
<g id="node6" class="node"><title>Milk</title>
<ellipse fill="none" stroke="black" cx="635.796" cy="-162" rx="28.6953" ry="18"/>
<text text-anchor="middle" x="635.796" y="-158.3" font-family="Times,serif" font-size="14.00">Milk</text>
</g>
<!-- Milk&#45;&gt;Basic Pancakes -->
<g id="edge5" class="edge"><title>Milk&#45;&gt;Basic Pancakes</title>
<path fill="none" stroke="black" d="M648.224,-145.465C655.172,-136.78 663.996,-125.75 671.883,-115.891"/>
<polygon fill="black" stroke="black" points="674.712,-117.957 678.226,-107.962 669.246,-113.584 674.712,-117.957"/>
</g>
<!-- Baking Powder -->
<g id="node7" class="node"><title>Baking Powder</title>
<ellipse fill="none" stroke="black" cx="747.796" cy="-162" rx="65.7887" ry="18"/>
<text text-anchor="middle" x="747.796" y="-158.3" font-family="Times,serif" font-size="14.00">Baking Powder</text>
</g>
<!-- Baking Powder&#45;&gt;Basic Pancakes -->
<g id="edge6" class="edge"><title>Baking Powder&#45;&gt;Basic Pancakes</title>
<path fill="none" stroke="black" d="M734.24,-144.055C727.43,-135.543 719.051,-125.068 711.541,-115.681"/>
<polygon fill="black" stroke="black" points="714.207,-113.411 705.227,-107.789 708.741,-117.784 714.207,-113.411"/>
</g>
<!-- Unsalted Butter -->
<g id="node9" class="node"><title>Unsalted Butter</title>
<ellipse fill="none" stroke="black" cx="897.796" cy="-162" rx="66.0889" ry="18"/>
<text text-anchor="middle" x="897.796" y="-158.3" font-family="Times,serif" font-size="14.00">Unsalted Butter</text>
</g>
<!-- Unsalted Butter&#45;&gt;Basic Pancakes -->
<g id="edge8" class="edge"><title>Unsalted Butter&#45;&gt;Basic Pancakes</title>
<path fill="none" stroke="#53e982" d="M858.077,-147.503C824.734,-136.173 776.946,-119.934 741.149,-107.771"/>
<polygon fill="#53e982" stroke="#53e982" points="741.987,-104.359 731.393,-104.455 739.735,-110.987 741.987,-104.359"/>
</g>
<!-- Maple Syrup -->
<g id="node10" class="node"><title>Maple Syrup</title>
<ellipse fill="none" stroke="black" cx="1038.8" cy="-162" rx="57.3905" ry="18"/>
<text text-anchor="middle" x="1038.8" y="-158.3" font-family="Times,serif" font-size="14.00">Maple Syrup</text>
</g>
<!-- Maple Syrup&#45;&gt;Basic Pancakes -->
<g id="edge9" class="edge"><title>Maple Syrup&#45;&gt;Basic Pancakes</title>
<path fill="none" stroke="black" stroke-dasharray="1,5" d="M996.645,-149.703C988.742,-147.711 980.534,-145.724 972.796,-144 898.857,-127.523 813.229,-111.859 756.114,-101.892"/>
<polygon fill="black" stroke="black" points="756.595,-98.4235 746.144,-100.16 755.397,-105.32 756.595,-98.4235"/>
</g>
<!-- Vegetable Oil -->
<g id="node11" class="node"><title>Vegetable Oil</title>
<ellipse fill="none" stroke="black" cx="1173.8" cy="-162" rx="59.5901" ry="18"/>
<text text-anchor="middle" x="1173.8" y="-158.3" font-family="Times,serif" font-size="14.00">Vegetable Oil</text>
</g>
<!-- Vegetable Oil&#45;&gt;Basic Pancakes -->
<g id="edge10" class="edge"><title>Vegetable Oil&#45;&gt;Basic Pancakes</title>
<path fill="none" stroke="black" d="M1126.95,-150.777C1116.65,-148.327 1105.86,-145.88 1095.8,-144 979.436,-122.273 842.96,-106.656 762.063,-98.2229"/>
<polygon fill="black" stroke="black" points="762.302,-94.729 751.995,-97.1803 761.581,-101.692 762.302,-94.729"/>
</g>
<!-- Vegetable Oil&#45;&gt;Basic Pancakes -->
<g id="edge11" class="edge"><title>Vegetable Oil&#45;&gt;Basic Pancakes</title>
<path fill="none" stroke="#53e982" d="M1134.6,-148.407C1127.71,-146.795 1120.59,-145.268 1113.8,-144 992.077,-121.272 848.347,-105.231 763.857,-97.1036"/>
<polygon fill="#53e982" stroke="#53e982" points="764.139,-93.6147 753.852,-96.1517 763.476,-100.583 764.139,-93.6147"/>
</g>
</g>
</svg>
